<?xml version="1.0" encoding="UTF-8" standalone="no"?>
<svg
   xmlns:dc="http://purl.org/dc/elements/1.1/"
   xmlns:cc="http://creativecommons.org/ns#"
   xmlns:rdf="http://www.w3.org/1999/02/22-rdf-syntax-ns#"
   xmlns:svg="http://www.w3.org/2000/svg"
   xmlns="http://www.w3.org/2000/svg"
   xmlns:sodipodi="http://sodipodi.sourceforge.net/DTD/sodipodi-0.dtd"
   xmlns:inkscape="http://www.inkscape.org/namespaces/inkscape"
   height="100px"
   width="100px"
   fill="#000000"
   version="1.1"
   x="0px"
   y="0px"
   viewBox="0 0 64 64"
   enable-background="new 0 0 64 64"
   xml:space="preserve"
   id="svg14"
   sodipodi:docname="monocypher_dotnet.svg"
   inkscape:version="0.92.4 (5da689c313, 2019-01-14)"
   inkscape:export-filename="C:\code\Monocypher.NET\img\monocypher_dotnet.png"
   inkscape:export-xdpi="491.51999"
   inkscape:export-ydpi="491.51999"><metadata
     id="metadata20"><rdf:RDF><cc:Work
         rdf:about=""><dc:format>image/svg+xml</dc:format><dc:type
           rdf:resource="http://purl.org/dc/dcmitype/StillImage" /><dc:title></dc:title></cc:Work></rdf:RDF></metadata><defs
     id="defs18" /><sodipodi:namedview
     pagecolor="#ffffff"
     bordercolor="#666666"
     borderopacity="1"
     objecttolerance="10"
     gridtolerance="10"
     guidetolerance="10"
     inkscape:pageopacity="0"
     inkscape:pageshadow="2"
     inkscape:window-width="3840"
     inkscape:window-height="2066"
     id="namedview16"
     showgrid="false"
     inkscape:zoom="9.44"
     inkscape:cx="117.52211"
     inkscape:cy="75.375983"
     inkscape:window-x="-11"
     inkscape:window-y="-11"
     inkscape:window-maximized="1"
     inkscape:current-layer="svg14" /><path
     style="fill:#ff8c44;fill-opacity:1;stroke:#000000;stroke-width:0;stroke-miterlimit:4;stroke-dasharray:none;stroke-opacity:1"
     d="M 22.580078 35.505859 C 20.154456 35.505859 18.201172 38.036251 18.201172 41.179688 L 18.201172 58.521484 C 18.201172 61.664921 20.154456 64.195312 22.580078 64.195312 L 76.519531 64.195312 C 78.945153 64.195312 80.898438 61.664921 80.898438 58.521484 L 80.898438 41.179688 C 80.898438 38.036251 78.945153 35.505859 76.519531 35.505859 L 22.580078 35.505859 z M 34.304688 43.535156 A 5.9007321 6.2281169 0 0 1 40.205078 49.761719 A 5.9007321 6.2281169 0 0 1 34.304688 55.990234 A 5.9007321 6.2281169 0 0 1 28.404297 49.761719 A 5.9007321 6.2281169 0 0 1 34.304688 43.535156 z "
     transform="scale(0.64)"
     id="rect821" /><g
     id="g12"><g
       id="g10"><path
         d="M 58,20 H 6 V 44 H 58 Z M 48,38 c -1.104,0 -2,-0.896 -2,-2 v -2 h -2 c 0,1.104 -0.896,2 -2,2 -1.104,0 -2,-0.896 -2,-2 H 29.737 c -0.892,3.444 -4.017,6 -7.737,6 -4.411,0 -8,-3.589 -8,-8 0,-4.411 3.589,-8 8,-8 3.72,0 6.845,2.555 7.737,6 H 48 c 1.104,0 2,0.896 2,2 v 4 c 0,1.104 -0.896,2 -2,2 z"
         id="path2"
         inkscape:connector-curvature="0"
         inkscape:label="path2"
         style="display:inline;fill:#1f69a5;fill-opacity:1;stroke:#000000;stroke-opacity:1" /><path
         d="m 22,28 c -2.206,0 -4,1.794 -4,4 0,2.206 1.794,4 4,4 2.206,0 4,-1.794 4,-4 0,-2.206 -1.794,-4 -4,-4 z"
         id="path4"
         inkscape:connector-curvature="0"
         style="display:inline;fill:none;fill-opacity:1;stroke:#000000;stroke-opacity:1" /><path
         d="m 6,48 v 4 c 0,1.104 0.896,2 2,2 h 48 c 1.104,0 2,-0.896 2,-2 v -4 z"
         id="path6"
         inkscape:connector-curvature="0"
         style="display:inline;fill:#44aaff;fill-opacity:1;stroke:#000000;stroke-opacity:1" /><path
         d="m 58,16 v -4 c 0,-1.104 -0.896,-2 -2,-2 H 8 c -1.104,0 -2,0.896 -2,2 v 4 z"
         id="path8"
         inkscape:connector-curvature="0"
         style="display:inline;fill:#44aaff;fill-opacity:1;stroke:#000000;stroke-opacity:1" /></g></g></svg>